HIERARCHY
ROOT hip
{
  OFFSET 5.51535 103.731 -2.80141
  CHANNELS 6 Xposition Yposition Zposition Zrotation Xrotation Yrotation
  JOINT abdomen
  {
    OFFSET 0 -1.186 -1.5018
    CHANNELS 6 Xposition Yposition Zposition Zrotation Xrotation Yrotation
    JOINT abdomen2
    {
      OFFSET 0 9.964 0.2134
      CHANNELS 6 Xposition Yposition Zposition Zrotation Xrotation Yrotation
      JOINT chest
      {
        OFFSET 0 13.134 -3.2573
        CHANNELS 6 Xposition Yposition Zposition Zrotation Xrotation Yrotation
        JOINT neck
        {
          OFFSET 0 20.686 -1.6905
          CHANNELS 6 Xposition Yposition Zposition Zrotation Xrotation Yrotation
          JOINT head
          {
            OFFSET 0 7.23801 -0.1237
            CHANNELS 6 Xposition Yposition Zposition Zrotation Xrotation Yrotation
            End Site
            {
              OFFSET 0 0 0
            }
          }
        }
        JOINT lCollar
        {
          OFFSET 1.7069 20.075 5.0056
          CHANNELS 6 Xposition Yposition Zposition Zrotation Xrotation Yrotation
          JOINT lShldr
          {
            OFFSET 13.6458 -0.0470195 -4.849
            CHANNELS 6 Xposition Yposition Zposition Zrotation Xrotation Yrotation
            JOINT lForeArm
            {
              OFFSET 28.3255 -0.97589 2.2888
              CHANNELS 6 Xposition Yposition Zposition Zrotation Xrotation Yrotation
              JOINT lHand
              {
                OFFSET 22.1583 -0.529998 10.8316
                CHANNELS 6 Xposition Yposition Zposition Zrotation Xrotation Yrotation
                JOINT lThumb1
                {
                  OFFSET 0.786 0.111997 2.5817
                  CHANNELS 6 Xposition Yposition Zposition Zrotation Xrotation Yrotation
                  JOINT lThumb2
                  {
                    OFFSET 0.360097 -0.877999 4.2331
                    CHANNELS 6 Xposition Yposition Zposition Zrotation Xrotation Yrotation
                    JOINT lThumb2_End
                    {
                      OFFSET 1.8127 -1.21601 2.2227
                      CHANNELS 6 Xposition Yposition Zposition Zrotation Xrotation Yrotation
                      End Site
                      {
                        OFFSET 0.0180981 -0.012195 0.0222007
                      }
                    }
                  }
                }
                JOINT lCarpal1
                {
                  OFFSET 0.9571 1.114 1.7695
                  CHANNELS 6 Xposition Yposition Zposition Zrotation Xrotation Yrotation
                  JOINT lIndex1
                  {
                    OFFSET 4.12461 0.486992 4.1451
                    CHANNELS 6 Xposition Yposition Zposition Zrotation Xrotation Yrotation
                    JOINT lIndex2
                    {
                      OFFSET 3.4052 -1.45401 2.7682
                      CHANNELS 6 Xposition Yposition Zposition Zrotation Xrotation Yrotation
                      JOINT lIndex2_End
                      {
                        OFFSET 1.45309 -1.79499 1.2713
                        CHANNELS 6 Xposition Yposition Zposition Zrotation Xrotation Yrotation
                        End Site
                        {
                          OFFSET 0.0144979 -0.0179083 0.0126995
                        }
                      }
                    }
                  }
                  JOINT lMid1
                  {
                    OFFSET 5.6954 0.209987 2.1184
                    CHANNELS 6 Xposition Yposition Zposition Zrotation Xrotation Yrotation
                    JOINT lMid2
                    {
                      OFFSET 3.9766 -1.53999 2.3863
                      CHANNELS 6 Xposition Yposition Zposition Zrotation Xrotation Yrotation
                      JOINT lMid2_End
                      {
                        OFFSET 1.4042 -1.926 1.125
                        CHANNELS 6 Xposition Yposition Zposition Zrotation Xrotation Yrotation
                        End Site
                        {
                          OFFSET 0.013999 -0.0193044 0.011301
                        }
                      }
                    }
                  }
                }
                JOINT lCarpal2
                {
                  OFFSET 2.0956 0.66 -0.3894
                  CHANNELS 6 Xposition Yposition Zposition Zrotation Xrotation Yrotation
                  JOINT lRing1
                  {
                    OFFSET 5.0395 -0.090013 2.4971
                    CHANNELS 6 Xposition Yposition Zposition Zrotation Xrotation Yrotation
                    JOINT lRing2
                    {
                      OFFSET 3.7921 -1.55199 1.4806
                      CHANNELS 6 Xposition Yposition Zposition Zrotation Xrotation Yrotation
                      JOINT lRing2_End
                      {
                        OFFSET 1.4655 -1.808 0.9609
                        CHANNELS 6 Xposition Yposition Zposition Zrotation Xrotation Yrotation
                        End Site
                        {
                          OFFSET 0.0147015 -0.0181014 0.00959957
                        }
                      }
                    }
                  }
                  JOINT lPinky1
                  {
                    OFFSET 4.9141 -1.269 0.3591
                    CHANNELS 6 Xposition Yposition Zposition Zrotation Xrotation Yrotation
                    JOINT lPinky2
                    {
                      OFFSET 3.1477 -1.685 0.8462
                      CHANNELS 6 Xposition Yposition Zposition Zrotation Xrotation Yrotation
                      JOINT lPinky2_End
                      {
                        OFFSET 0.805498 -1.58501 0.795499
                        CHANNELS 6 Xposition Yposition Zposition Zrotation Xrotation Yrotation
                        End Site
                        {
                          OFFSET 0.00809703 -0.0157944 0.00799848
                        }
                      }
                    }
                  }
                }
              }
            }
          }
        }
        JOINT rCollar
        {
          OFFSET -1.7069 20.075 5.0056
          CHANNELS 6 Xposition Yposition Zposition Zrotation Xrotation Yrotation
          JOINT rShldr
          {
            OFFSET -13.6458 -0.0470107 -4.849
            CHANNELS 6 Xposition Yposition Zposition Zrotation Xrotation Yrotation
            JOINT rForeArm
            {
              OFFSET -28.3255 -0.975895 2.2888
              CHANNELS 6 Xposition Yposition Zposition Zrotation Xrotation Yrotation
              JOINT rHand
              {
                OFFSET -22.1583 -0.530007 10.8316
                CHANNELS 6 Xposition Yposition Zposition Zrotation Xrotation Yrotation
                JOINT rThumb1
                {
                  OFFSET -0.785997 0.112005 2.5817
                  CHANNELS 6 Xposition Yposition Zposition Zrotation Xrotation Yrotation
                  JOINT rThumb2
                  {
                    OFFSET -0.360106 -0.877994 4.2331
                    CHANNELS 6 Xposition Yposition Zposition Zrotation Xrotation Yrotation
                    JOINT rThumb2_End
                    {
                      OFFSET -1.8127 -1.216 2.2227
                      CHANNELS 6 Xposition Yposition Zposition Zrotation Xrotation Yrotation
                      End Site
                      {
                        OFFSET -0.0180972 -0.0121973 0.0222005
                      }
                    }
                  }
                }
                JOINT rCarpal1
                {
                  OFFSET -0.9571 1.114 1.7695
                  CHANNELS 6 Xposition Yposition Zposition Zrotation Xrotation Yrotation
                  JOINT rIndex1
                  {
                    OFFSET -4.1246 0.487011 4.1451
                    CHANNELS 6 Xposition Yposition Zposition Zrotation Xrotation Yrotation
                    JOINT rIndex2
                    {
                      OFFSET -3.4052 -1.45401 2.7682
                      CHANNELS 6 Xposition Yposition Zposition Zrotation Xrotation Yrotation
                      JOINT rIndex2_End
                      {
                        OFFSET -1.4531 -1.795 1.2713
                        CHANNELS 6 Xposition Yposition Zposition Zrotation Xrotation Yrotation
                        End Site
                        {
                          OFFSET -0.0145077 -0.0180048 0.0127017
                        }
                      }
                    }
                  }
                  JOINT rMid1
                  {
                    OFFSET -5.6954 0.210002 2.1184
                    CHANNELS 6 Xposition Yposition Zposition Zrotation Xrotation Yrotation
                    JOINT rMid2
                    {
                      OFFSET -3.9766 -1.54 2.3863
                      CHANNELS 6 Xposition Yposition Zposition Zrotation Xrotation Yrotation
                      JOINT rMid2_End
                      {
                        OFFSET -1.4042 -1.926 1.125
                        CHANNELS 6 Xposition Yposition Zposition Zrotation Xrotation Yrotation
                        End Site
                        {
                          OFFSET -0.0139948 -0.0192916 0.0112994
                        }
                      }
                    }
                  }
                }
                JOINT rCarpal2
                {
                  OFFSET -2.0956 0.66 -0.3894
                  CHANNELS 6 Xposition Yposition Zposition Zrotation Xrotation Yrotation
                  JOINT rRing1
                  {
                    OFFSET -5.03951 -0.0899879 2.4971
                    CHANNELS 6 Xposition Yposition Zposition Zrotation Xrotation Yrotation
                    JOINT rRing2
                    {
                      OFFSET -3.7921 -1.55201 1.4806
                      CHANNELS 6 Xposition Yposition Zposition Zrotation Xrotation Yrotation
                      JOINT rRing2_End
                      {
                        OFFSET -1.4655 -1.808 0.960901
                        CHANNELS 6 Xposition Yposition Zposition Zrotation Xrotation Yrotation
                        End Site
                        {
                          OFFSET -0.0146934 -0.0180999 0.00959832
                        }
                      }
                    }
                  }
                  JOINT rPinky1
                  {
                    OFFSET -4.91411 -1.26899 0.359202
                    CHANNELS 6 Xposition Yposition Zposition Zrotation Xrotation Yrotation
                    JOINT rPinky2
                    {
                      OFFSET -3.14769 -1.68501 0.846199
                      CHANNELS 6 Xposition Yposition Zposition Zrotation Xrotation Yrotation
                      JOINT rPinky2_End
                      {
                        OFFSET -0.805498 -1.585 0.7955
                        CHANNELS 6 Xposition Yposition Zposition Zrotation Xrotation Yrotation
                        End Site
                        {
                          OFFSET -0.00810035 -0.0158035 0.00800029
                        }
                      }
                    }
                  }
                }
              }
            }
          }
        }
      }
    }
  }
  JOINT lThigh
  {
    OFFSET 8.367 -8.2066 0.5982
    CHANNELS 6 Xposition Yposition Zposition Zrotation Xrotation Yrotation
    JOINT lShin
    {
      OFFSET 2.1923 -43.463 -0.4932
      CHANNELS 6 Xposition Yposition Zposition Zrotation Xrotation Yrotation
      JOINT lFoot
      {
        OFFSET 0.733301 -45.8593 -2.6451
        CHANNELS 6 Xposition Yposition Zposition Zrotation Xrotation Yrotation
        End Site
        {
          OFFSET 2.6618 -4.2699 12.3931
        }
      }
    }
  }
  JOINT rThigh
  {
    OFFSET -8.367 -8.2066 0.5982
    CHANNELS 6 Xposition Yposition Zposition Zrotation Xrotation Yrotation
    JOINT rShin
    {
      OFFSET -2.1923 -43.463 -0.4931
      CHANNELS 6 Xposition Yposition Zposition Zrotation Xrotation Yrotation
      JOINT rFoot
      {
        OFFSET -0.733299 -45.8593 -2.6451
        CHANNELS 6 Xposition Yposition Zposition Zrotation Xrotation Yrotation
        End Site
        {
          OFFSET -2.6618 -4.2699 12.3931
        }
      }
    }
  }
}
MOTION
Frames:	4
Frame Time:	0.0333333
2.74995 93.3051 -0.254235 8.39888 -6.53212 -8.50998 -4.51794e-006 -1.186 -1.5018 5.22659 6.51801 -4.50303 8.17473e-007 9.964 0.2134 11.0565 12.5732 -9.67715 1.78611e-006 13.134 -3.2573 11.0565 12.5732 -9.67716 1.49003e-005 20.686 -1.6905 -3.55189 -5.92267 -37.837 -3.1681e-006 7.23802 -0.123682 -6.40026 -2.44121 -32.1734 1.70691 20.075 5.0056 14.164 -1.75976 -0.907332 13.6458 -0.0470131 -4.849 -106.209 -9.82381 31.0712 28.3255 -0.975891 2.2888 -25.8526 -31.0756 -28.3267 22.1583 -0.529986 10.8316 11.6207 52.4355 4.07465 0.786004 0.111997 2.5817 -5.78854 -0.157546 -10.5708 0.360096 -0.877998 4.2331 -6.14022e-006 -1.27467e-005 8.97923e-006 1.8127 -1.21601 2.2227 -3.61915 -0.223931 -6.6131 0.9571 1.114 1.7695 -6.36111e-015 9.54166e-015 9.54166e-015 4.12461 0.48699 4.1451 6.71009 -3.64332 -9.97841 3.4052 -1.454 2.7682 6.30561 -2.96086 -2.44347 1.4531 -1.79499 1.2713 7.68731 -3.65177 -2.94063 5.6954 0.209987 2.1184 12.5775 -6.8489 -4.55509 3.9766 -1.53999 2.3863 12.56 -6.84608 -4.59964 1.4042 -1.926 1.125 12.5597 -6.84584 -4.59975 2.0956 0.66 -0.3894 -6.36111e-015 9.54166e-015 9.54166e-015 5.0395 -0.0900139 2.4971 12.1182 -7.15951 -5.17237 3.7921 -1.55199 1.4806 12.1073 -7.1875 -5.15955 1.4655 -1.808 0.9609 12.1069 -7.18721 -5.15974 4.9141 -1.269 0.359102 18.4425 -3.56103 4.52533 3.1477 -1.685 0.846198 11.9617 -7.55017 -4.97723 0.805498 -1.585 0.795499 11.962 -7.55044 -4.9772 -1.7069 20.075 5.0056 -12.9848 -0.156621 -4.20591 -13.6458 -0.047011 -4.849 56.3405 -2.82176 6.52296 -28.3255 -0.975894 2.2888 17.9216 27.5577 3.22092 -22.1583 -0.530005 10.8316 -35.0147 49.1301 17.7653 -0.786 0.112005 2.5817 2.88945 -2.15543 8.33923 -0.360109 -0.877993 4.2331 -0.888535 0.807532 -2.75021 -1.8127 -1.216 2.2227 1.40469 -1.13052 4.15558 -0.9571 1.114 1.7695 -7.95139e-016 6.36111e-015 -0 -4.1246 0.487011 4.1451 -4.53898 -2.1728 7.52625 -3.4052 -1.45401 2.7682 -2.55348 -0.861338 0.339954 -1.4531 -1.795 1.2713 -4.08987 -1.38666 0.525624 -5.69541 0.210001 2.1184 -8.91188 -3.44065 0.916092 -3.9766 -1.54 2.3863 -8.90259 -3.44321 0.961553 -1.4042 -1.926 1.125 -8.90253 -3.44337 0.961413 -2.0956 0.66 -0.3894 -7.95139e-016 6.36111e-015 -0 -5.03951 -0.0899886 2.4971 -13.3385 -5.77087 1.77004 -3.7921 -1.55201 1.4806 -13.3166 -5.79135 1.75193 -1.4655 -1.808 0.960901 -13.3273 -5.79602 1.75331 -4.9141 -1.26899 0.359202 -25.7845 -2.43887 -6.43108 -3.14769 -1.68501 0.846198 -13.2125 -6.13017 1.52981 -0.805499 -1.585 0.795498 -13.2058 -6.1268 1.52917 8.36701 -8.2066 0.598202 -4.40453 -30.0717 -10.5432 2.19231 -43.463 -0.493189 -5.07434 38.3229 -7.7164 0.733302 -45.8593 -2.6451 -5.70779 -5.57436 -12.1174 -8.367 -8.2066 0.5982 0.384793 -20.4708 20.5549 -2.19336 -43.463 -0.489695 16.6114 54.7125 -19.7442 -0.733298 -45.8593 -2.6451 -4.00293 -32.495 -13.0248 
2.75433 92.6889 -0.31396 7.61485 -6.94245 -8.28434 1.90309e-007 -1.186 -1.5018 5.05618 6.23349 -4.31822 -4.04326e-007 9.964 0.2134 10.6622 12.0399 -9.25292 9.74137e-007 13.134 -3.2573 10.6622 12.0399 -9.25292 -2.51524e-005 20.686 -1.69049 -4.95974 -5.92932 -34.2169 -9.70652e-006 7.23799 -0.123685 -6.52537 -1.82163 -28.367 1.7069 20.075 5.0056 14.0834 -1.7595 -0.915619 13.6458 -0.0470083 -4.849 -103.469 -10.6741 32.4141 28.3255 -0.975886 2.28879 -25.306 -29.7007 -27.2063 22.1583 -0.529992 10.8316 10.8044 52.4263 5.34805 0.786003 0.111998 2.5817 -5.78853 -0.157542 -10.5708 0.360099 -0.877999 4.2331 -7.19233e-006 -1.2806e-005 2.02068e-006 1.8127 -1.21601 2.2227 -3.61915 -0.22393 -6.6131 0.9571 1.114 1.7695 9.54166e-015 0 -3.18055e-015 4.12461 0.486993 4.14511 6.69264 -3.63663 -9.97007 3.4052 -1.45401 2.7682 6.28833 -2.95231 -2.43715 1.4531 -1.79499 1.2713 7.6701 -3.64308 -2.93452 5.69541 0.209989 2.1184 12.5374 -6.82475 -4.53957 3.9766 -1.53999 2.3863 12.5191 -6.82188 -4.58687 1.4042 -1.926 1.125 12.5194 -6.82196 -4.58716 2.0956 0.66 -0.3894 9.54166e-015 0 -3.18055e-015 5.0395 -0.0900125 2.4971 12.0794 -7.1322 -5.15839 3.7921 -1.55199 1.4806 12.0681 -7.16203 -5.14495 1.4655 -1.808 0.960899 12.068 -7.16187 -5.14523 4.91411 -1.269 0.359103 18.4024 -3.53145 4.53454 3.1477 -1.685 0.846199 11.9232 -7.52376 -4.96341 0.805498 -1.58501 0.795499 11.9233 -7.52385 -4.96328 -1.7069 20.075 5.0056 -12.3074 -0.482769 -3.91717 -13.6458 -0.0470111 -4.849 56.3723 -2.79073 4.87324 -28.3255 -0.975883 2.2888 17.4972 28.0007 3.2017 -22.1583 -0.530007 10.8316 -34.2851 49.0229 18.2459 -0.786002 0.112006 2.5817 2.88948 -2.15545 8.33922 -0.360109 -0.877993 4.2331 -0.88856 0.80754 -2.7502 -1.8127 -1.216 2.2227 1.40472 -1.1305 4.1556 -0.9571 1.114 1.7695 -7.95139e-016 3.18055e-015 -0 -4.1246 0.487012 4.1451 -4.53897 -2.17279 7.52625 -3.4052 -1.45401 2.7682 -2.55348 -0.861337 0.339945 -1.4531 -1.795 1.2713 -4.08984 -1.38665 0.525647 -5.6954 0.210003 2.1184 -8.86469 -3.42163 0.909583 -3.9766 -1.54 2.3863 -8.85632 -3.42491 0.957923 -1.4042 -1.926 1.125 -8.85588 -3.42497 0.95778 -2.0956 0.66 -0.3894 -7.95139e-016 3.18055e-015 -0 -5.03951 -0.0899874 2.4971 -13.2922 -5.74819 1.76718 -3.7921 -1.55201 1.4806 -13.2712 -5.77096 1.74826 -1.4655 -1.808 0.960901 -13.282 -5.77567 1.74966 -4.91411 -1.26899 0.359201 -25.7377 -2.41595 -6.42699 -3.1477 -1.68501 0.8462 -13.1673 -6.10862 1.52698 -0.805499 -1.585 0.795499 -13.1608 -6.10537 1.52637 8.36699 -8.2066 0.598202 -3.95245 -30.9317 -11.0637 2.1923 -43.463 -0.493199 -5.47377 40.8078 -7.49175 0.733304 -45.8593 -2.6451 -5.57435 -6.65263 -12.089 -8.367 -8.20661 0.598199 1.13937 -20.548 20.2407 -2.19219 -43.463 -0.493467 17.5695 55.8815 -20.6034 -0.7333 -45.8593 -2.64511 -4.17386 -33.1771 -13.0106 
2.84191 91.8105 -0.387589 6.41827 -7.5154 -8.21725 4.52458e-007 -1.18599 -1.5018 4.79441 5.8448 -4.07101 2.62814e-007 9.964 0.2134 10.0703 11.3106 -8.68549 2.40883e-006 13.134 -3.2573 10.0703 11.3106 -8.68549 -3.45667e-005 20.686 -1.69048 -6.55682 -6.55097 -28.413 -1.06848e-005 7.23798 -0.123684 -6.44191 -0.977225 -22.6627 1.7069 20.075 5.0056 14.0061 -1.75882 -0.891595 13.6458 -0.0470078 -4.849 -99.6132 -11.8015 34.7937 28.3255 -0.975898 2.2888 -24.4517 -27.3909 -26.2971 22.1583 -0.529981 10.8316 9.29054 52.223 7.37235 0.786004 0.111995 2.5817 -5.78854 -0.157528 -10.5708 0.360099 -0.877999 4.2331 9.84947e-006 -2.64968e-005 2.72518e-007 1.8127 -1.21601 2.2227 -3.61915 -0.223937 -6.61309 0.9571 1.114 1.7695 6.36111e-015 0 -0 4.1246 0.486994 4.1451 6.67517 -3.62997 -9.96173 3.4052 -1.454 2.7682 6.27105 -2.94375 -2.43086 1.4531 -1.79499 1.2713 7.65288 -3.63438 -2.92843 5.6954 0.209987 2.1184 12.4973 -6.80059 -4.52406 3.9766 -1.53999 2.3863 12.4783 -6.79768 -4.57411 1.4042 -1.926 1.125 12.479 -6.7981 -4.57455 2.0956 0.66 -0.3894 6.36111e-015 0 -0 5.0395 -0.0900141 2.4971 12.0405 -7.10494 -5.14441 3.7921 -1.55199 1.4806 12.0289 -7.13656 -5.13033 1.4655 -1.808 0.960898 12.029 -7.13655 -5.13072 4.9141 -1.269 0.359101 18.3623 -3.50194 4.54375 3.1477 -1.685 0.846197 11.8847 -7.49733 -4.94957 0.8055 -1.585 0.795499 11.8845 -7.49728 -4.94936 -1.7069 20.075 5.0056 -11.3704 -0.954741 -3.43733 -13.6458 -0.047011 -4.849 56.4207 -2.76023 2.86837 -28.3255 -0.975885 2.28881 17.1099 28.4883 2.80193 -22.1583 -0.530013 10.8316 -33.4329 49.1485 19.48 -0.786004 0.112005 2.5817 2.88947 -2.15548 8.3392 -0.360103 -0.877993 4.2331 -0.888548 0.807544 -2.75019 -1.8127 -1.216 2.2227 1.4047 -1.13052 4.15559 -0.9571 1.114 1.7695 -3.08973e-031 -6.36111e-015 -2.78299e-015 -4.12461 0.487011 4.1451 -4.53899 -2.17278 7.52625 -3.4052 -1.45401 2.7682 -2.5535 -0.861337 0.33993 -1.4531 -1.795 1.2713 -4.08985 -1.38666 0.525635 -5.69541 0.210002 2.1184 -8.81749 -3.40262 0.903058 -3.9766 -1.54 2.3863 -8.81005 -3.40663 0.954305 -1.4042 -1.926 1.125 -8.80927 -3.40655 0.954095 -2.0956 0.66 -0.3894 -3.08973e-031 -6.36111e-015 -2.78299e-015 -5.03951 -0.0899867 2.4971 -13.2459 -5.72551 1.76433 -3.7921 -1.55201 1.4806 -13.2258 -5.75056 1.74456 -1.4655 -1.808 0.9609 -13.2367 -5.75532 1.74596 -4.91411 -1.26899 0.359202 -25.6909 -2.39303 -6.42293 -3.1477 -1.68501 0.846199 -13.122 -6.08708 1.52414 -0.805501 -1.585 0.7955 -13.1157 -6.08393 1.52354 8.367 -8.2066 0.598201 -3.24992 -32.1784 -11.4125 2.1923 -43.463 -0.493203 -5.68821 44.343 -7.37964 0.733298 -45.8593 -2.6451 -5.49095 -8.07652 -12.2046 -8.36701 -8.20662 0.5982 2.35398 -20.6397 20.0848 -2.19876 -43.4629 -0.473591 18.9781 57.4509 -21.8555 -0.733299 -45.8593 -2.64511 -4.37149 -34.0461 -13.0751 
2.94359 90.8001 -0.481824 5.05279 -8.19286 -8.0381 9.20412e-007 -1.186 -1.5018 4.46629 5.37416 -3.81939 2.88788e-007 9.964 0.2134 9.34221 10.4201 -8.1 -1.10431e-008 13.134 -3.2573 9.3422 10.4201 -8.1 -2.3557e-005 20.686 -1.69049 -7.68793 -7.78594 -21.4496 -1.31651e-005 7.238 -0.123682 -5.82725 -0.0575768 -15.8996 1.7069 20.075 5.0056 13.9012 -1.75779 -0.856919 13.6458 -0.047012 -4.84901 -94.6304 -12.9905 38.1712 28.3255 -0.97589 2.2888 -23.882 -24.1141 -26.1352 22.1583 -0.529984 10.8316 7.83809 52.472 9.82063 0.786003 0.111997 2.5817 -5.78855 -0.157536 -10.5708 0.360097 -0.877998 4.2331 -2.01257e-006 -1.6778e-005 4.76286e-006 1.8127 -1.21601 2.2227 -3.61914 -0.223942 -6.61309 0.9571 1.114 1.7695 3.18055e-015 -6.36111e-015 -9.54166e-015 4.1246 0.486993 4.1451 6.65772 -3.6233 -9.95339 3.4052 -1.454 2.7682 6.25378 -2.93522 -2.42453 1.4531 -1.79499 1.2713 7.63565 -3.62568 -2.92232 5.6954 0.209984 2.1184 12.4573 -6.77644 -4.50852 3.9766 -1.53999 2.3863 12.4374 -6.7735 -4.56132 1.4042 -1.92599 1.125 12.4387 -6.77423 -4.56192 2.0956 0.66 -0.3894 3.18055e-015 -6.36111e-015 -9.54166e-015 5.0395 -0.0900149 2.4971 12.0017 -7.07763 -5.13041 3.7921 -1.55199 1.4806 11.9896 -7.11111 -5.11571 1.4655 -1.808 0.960901 11.99 -7.11125 -5.11616 4.9141 -1.269 0.359098 18.3222 -3.47236 4.55298 3.1477 -1.685 0.846197 11.8462 -7.47094 -4.93571 0.805498 -1.58501 0.7955 11.8458 -7.47071 -4.93542 -1.7069 20.075 5.0056 -10.1747 -1.51205 -2.87075 -13.6458 -0.0470161 -4.849 56.497 -2.72339 0.526241 -28.3255 -0.975893 2.28879 16.5113 28.9807 2.37431 -22.1583 -0.530018 10.8316 -32.3093 50.1401 20.7031 -0.786 0.112006 2.5817 2.8895 -2.15554 8.33921 -0.360108 -0.877993 4.2331 -0.888545 0.807544 -2.7502 -1.8127 -1.216 2.2227 1.4047 -1.1305 4.1556 -0.9571 1.114 1.7695 3.97569e-016 0 -7.95139e-016 -4.12461 0.487012 4.1451 -4.53901 -2.17276 7.52625 -3.4052 -1.45401 2.7682 -2.55351 -0.861332 0.339941 -1.4531 -1.795 1.2713 -4.08983 -1.38665 0.525632 -5.6954 0.210002 2.1184 -8.77031 -3.38363 0.896503 -3.9766 -1.54 2.3863 -8.76377 -3.38836 0.950654 -1.4042 -1.926 1.125 -8.76265 -3.38813 0.950427 -2.0956 0.66 -0.3894 3.97569e-016 0 -7.95139e-016 -5.03951 -0.089987 2.4971 -13.1996 -5.70284 1.76147 -3.7921 -1.55201 1.4806 -13.1805 -5.73015 1.74084 -1.4655 -1.808 0.960901 -13.1914 -5.73499 1.74225 -4.91411 -1.26899 0.359202 -25.644 -2.37011 -6.41887 -3.1477 -1.68501 0.846198 -13.0768 -6.06556 1.52129 -0.805501 -1.585 0.795501 -13.0707 -6.06249 1.52072 8.367 -8.2066 0.598202 -2.4364 -33.3129 -11.7861 2.1923 -43.463 -0.493204 -5.93372 47.9147 -7.28839 0.733302 -45.8593 -2.6451 -5.37398 -9.5194 -12.4065 -8.36702 -8.2066 0.598203 3.66772 -20.7389 19.7455 -2.19869 -43.4629 -0.474569 20.5917 59.21 -24.509 -0.733297 -45.8593 -2.6451 -3.69843 -35.1089 -11.7035 
